<svg xmlns="http://www.w3.org/2000/svg" width="20" height="20" viewBox="0 0 20 20">
  <metadata><?xpacket begin="﻿" id="W5M0MpCehiHzreSzNTczkc9d"?>
<x:xmpmeta xmlns:x="adobe:ns:meta/" x:xmptk="Adobe XMP Core 5.6-c140 79.160451, 2017/05/06-01:08:21        ">
   <rdf:RDF xmlns:rdf="http://www.w3.org/1999/02/22-rdf-syntax-ns#">
      <rdf:Description rdf:about=""/>
   </rdf:RDF>
</x:xmpmeta>
                                                                                                    
                                                                                                    
                                                                                                    
                                                                                                    
                                                                                                    
                                                                                                    
                                                                                                    
                                                                                                    
                                                                                                    
                                                                                                    
                                                                                                    
                                                                                                    
                                                                                                    
                                                                                                    
                                                                                                    
                                                                                                    
                                                                                                    
                                                                                                    
                                                                                                    
                                                                                                    
                           
<?xpacket end="w"?></metadata>
<defs>
    <style>
      .cls-1 {
        fill: #253544;
        fill-rule: evenodd;
      }
    </style>
  </defs>
  <path id="icon-calendar" class="cls-1" d="M384.454,924.273h-1.818v1.818h1.818v-1.818Zm3.638,0h-1.82v1.818h1.82v-1.818Zm3.635,0h-1.818v1.818h1.818v-1.818Zm3.637,0h-1.818v1.818h1.818v-1.818Zm-10.91,3.636h-1.818v1.818h1.818v-1.818Zm3.638,0h-1.82v1.818h1.82v-1.818Zm3.635,0h-1.818v1.818h1.818v-1.818Zm3.637,0h-1.818v1.818h1.818v-1.818Zm-10.91,5.455v-1.819h-1.818v1.819h1.818Zm3.638-1.819h-1.82v1.819h1.82v-1.819Zm3.635,0h-1.818v1.819h1.818v-1.819Zm3.637,0h-1.818v1.819h1.818v-1.819ZM379,917v20h20V917H379Zm18.181,18.182H380.818V922.454h16.363v12.728Z" transform="translate(-379 -917)"/>
</svg>
