<svg xmlns="http://www.w3.org/2000/svg" width="25.92" height="25.92" viewBox="0 0 25.92 25.92"><title>icon-instagram</title><path d="M13,2.34c3.46,0,3.87,0,5.24.08a7.17,7.17,0,0,1,2.41.45,4,4,0,0,1,1.49,1,4,4,0,0,1,1,1.49,7.17,7.17,0,0,1,.45,2.41c.06,1.37.08,1.78.08,5.24s0,3.87-.08,5.24a7.17,7.17,0,0,1-.45,2.41,4.29,4.29,0,0,1-2.46,2.46,7.17,7.17,0,0,1-2.41.45c-1.37.06-1.78.08-5.24.08s-3.87,0-5.24-.08a7.17,7.17,0,0,1-2.41-.45,4,4,0,0,1-1.49-1,4,4,0,0,1-1-1.49,7.17,7.17,0,0,1-.45-2.41c-.06-1.37-.08-1.78-.08-5.24s0-3.87.08-5.24a7.17,7.17,0,0,1,.45-2.41,4,4,0,0,1,1-1.49,4,4,0,0,1,1.49-1,7.17,7.17,0,0,1,2.41-.45C9.09,2.35,9.5,2.34,13,2.34M13,0C9.44,0,9,0,7.62.08a9.51,9.51,0,0,0-3.15.6,6.35,6.35,0,0,0-2.3,1.49A6.35,6.35,0,0,0,.68,4.47a9.51,9.51,0,0,0-.6,3.15C0,9,0,9.44,0,13s0,4,.08,5.34a9.51,9.51,0,0,0,.6,3.15,6.35,6.35,0,0,0,1.49,2.3,6.35,6.35,0,0,0,2.3,1.49,9.51,9.51,0,0,0,3.15.6c1.38.06,1.82.08,5.34.08s4,0,5.34-.08a9.51,9.51,0,0,0,3.15-.6,6.63,6.63,0,0,0,3.79-3.79,9.51,9.51,0,0,0,.6-3.15c.06-1.38.08-1.82.08-5.34s0-4-.08-5.34a9.51,9.51,0,0,0-.6-3.15,6.35,6.35,0,0,0-1.49-2.3A6.35,6.35,0,0,0,21.45.68,9.51,9.51,0,0,0,18.3.08C16.92,0,16.48,0,13,0Z" style="fill:#253544"/><path d="M13,6.3A6.66,6.66,0,1,0,19.62,13,6.66,6.66,0,0,0,13,6.3Zm0,11A4.32,4.32,0,1,1,17.28,13,4.32,4.32,0,0,1,13,17.28Z" style="fill:#253544"/><circle cx="19.88" cy="6.04" r="1.56" style="fill:#253544"/></svg>