<svg version="1.1" id="Layer_1" xmlns="http://www.w3.org/2000/svg" xmlns:xlink="http://www.w3.org/1999/xlink" x="0px" y="0px" viewBox="-398 183 427 427" style="enable-background:new -398 183 427 427;" xml:space="preserve"><style type="text/css">.st0{fill:#FFFFFF;}</style>
<path class="st0" d="M-187.2,607.2l211-208.8c1.6-1.6,2.4-3.6,2.4-5.7c0-2-0.8-4.1-2.3-5.6l-13.9-14c-1.5-1.5-3.5-2.4-5.6-2.4
	s-4.2,0.8-5.7,2.3l-173.6,171.8V190.1c0-4.4-3.6-8-8-8h-19.7c-4.4,0-8,3.6-8,8v354.8l-157-155.2c-3.1-3.1-8.2-3.1-11.3,0.1l-13.9,14
	c-1.5,1.5-2.3,3.5-2.3,5.6s0.9,4.2,2.4,5.6l194.3,192.1C-195.3,610.3-190.3,610.3-187.2,607.2L-187.2,607.2z"/>
</svg>
