<?xml version="1.0" encoding="utf-8"?>
<!-- Generator: Adobe Illustrator 21.1.0, SVG Export Plug-In . SVG Version: 6.00 Build 0)  -->
<svg version="1.1"
	 id="Layer_1" xmlns:cc="http://creativecommons.org/ns#" xmlns:dc="http://purl.org/dc/elements/1.1/" xmlns:rdf="http://www.w3.org/1999/02/22-rdf-syntax-ns#"
	 xmlns="http://www.w3.org/2000/svg" xmlns:xlink="http://www.w3.org/1999/xlink" x="0px" y="0px" viewBox="0 0 32 32"
	 style="enable-background:new 0 0 32 32;" xml:space="preserve">
<style type="text/css">
	.st0{fill:none;}
	.st1{fill:#FFFFFF;}
</style>
<rect class="st0" width="32" height="32"/>
<g>
	<path image-rendering="auto" shape-rendering="auto" color-rendering="auto" class="st1" d="M28,3c0,0-0.1,0-0.1,0H20
		c-0.6,0-1,0.4-1,1s0.4,1,1,1c0,0,0,0,0,0h5.6L13.3,17.3c-0.4,0.4-0.4,1,0,1.4c0.4,0.4,1,0.4,1.4,0c0,0,0,0,0,0L27,6.4V12
		c0,0.6,0.4,1,1,1c0.6,0,1-0.4,1-1c0,0,0,0,0,0V4.1c0.1-0.5-0.3-1.1-0.9-1.1C28.1,3,28,3,28,3L28,3z"/>
	<path image-rendering="auto" shape-rendering="auto" color-rendering="auto" class="st1" d="M14,7c-2.5,0-4.4,0-5.9,0.2
		C6.6,7.3,5.4,7.7,4.5,8.6s-1.2,2.1-1.4,3.6C3,13.6,3,15.5,3,18c0,2.5,0,4.4,0.2,5.9s0.5,2.7,1.4,3.6c0.9,0.9,2.1,1.2,3.6,1.4
		S11.5,29,14,29c2.5,0,4.4,0,5.9-0.2c1.5-0.2,2.7-0.5,3.6-1.4s1.2-2.1,1.4-3.6S25,20.5,25,18c0-0.6-0.4-1-1-1s-1,0.4-1,1
		c0,0,0,0,0,0c0,2.5,0,4.3-0.2,5.6c-0.1,1.3-0.4,2-0.8,2.4c-0.4,0.4-1.1,0.7-2.4,0.8S16.5,27,14,27c-2.5,0-4.3,0-5.6-0.2
		C7,26.7,6.4,26.4,6,26S5.3,25,5.2,23.7S5,20.5,5,18c0-2.5,0-4.3,0.2-5.7s0.4-2,0.8-2.4S7,9.3,8.3,9.2C9.6,9,11.5,9,14,9
		c0.6,0,1-0.4,1-1C15,7.5,14.6,7,14,7C14,7,14,7,14,7L14,7z"/>
</g>
<rect class="st0" width="32" height="32"/>
</svg>
