<svg xmlns="http://www.w3.org/2000/svg" width="30" height="24.38" viewBox="0 0 30 24.38"><title>icon-twitter</title><path d="M9.43,24.38c11.32,0,17.51-9.38,17.51-17.51,0-.27,0-.53,0-.8A12.52,12.52,0,0,0,30,2.89a12.29,12.29,0,0,1-3.53,1A6.18,6.18,0,0,0,29.17.45a12.33,12.33,0,0,1-3.91,1.49A6.16,6.16,0,0,0,14.77,7.56,17.47,17.47,0,0,1,2.09,1.13,6.16,6.16,0,0,0,4,9.34a6.11,6.11,0,0,1-2.79-.77s0,.05,0,.08a6.16,6.16,0,0,0,4.94,6,6.15,6.15,0,0,1-2.78.11,6.16,6.16,0,0,0,5.75,4.27A12.35,12.35,0,0,1,1.47,21.7,12.53,12.53,0,0,1,0,21.62a17.43,17.43,0,0,0,9.43,2.76" style="fill:#94bfdc"/></svg>